<svg xmlns="http://www.w3.org/2000/svg" xmlns:xlink="http://www.w3.org/1999/xlink" version="1.1" x="0px" y="0px" viewBox="0 0 2000 2000" enable-background="new 0 0 2000 2000" xml:space="preserve">
<path fill="#6FA5D8" d="M1355.554,750.826V649.645c0-70.798-50.341-130.058-117.105-143.869c-4.162-43.1-19.802-83.904-45.835-119.098  c-26.679-36.064-62.183-63.422-103.448-79.901v-92.081c0-49.164-39.999-89.161-89.164-89.161c-49.164,0-89.161,39.998-89.161,89.161  v92.078c-41.28,16.485-76.795,43.857-103.478,79.942c-26.02,35.188-41.649,75.978-45.811,119.06  c-66.766,13.811-117.106,73.07-117.106,143.869v101.182c-46.185,13.261-80.076,55.882-80.076,106.272v814.141  c0,112.059,91.166,203.225,203.225,203.225h464.814c112.059,0,203.225-91.166,203.225-203.225V857.099  C1435.632,806.708,1401.739,764.086,1355.554,750.826z M943.33,348.246c10.995-3.444,17.917-13.783,17.51-24.767V214.696  c0-21.593,17.568-39.161,39.161-39.161c21.595,0,39.164,17.568,39.164,39.161v109.122c-0.009,0.39-0.009,0.778,0,1.166v0.36h0.009  c0.391,10.274,7.138,19.658,17.51,22.907c70.816,22.187,121.075,82.571,131.068,154.485H812.247  C822.24,430.815,872.499,370.433,943.33,348.246z M791.352,552.735h417.297c53.434,0,96.905,43.473,96.905,96.909v96.909H694.444  v-96.909C694.444,596.208,737.917,552.735,791.352,552.735z M1232.407,1824.465H767.593c-71.437,0-131.607-49.141-148.495-115.395  h195.545c13.807,0,25-11.191,25-25c0-13.807-11.193-25-25-25H614.368v-68.924h87.636c13.807,0,25-11.193,25-25s-11.193-25-25-25  h-87.636v-68.922h87.636c13.807,0,25-11.193,25-25s-11.193-25-25-25h-87.636v-68.924h200.275c13.807,0,25-11.193,25-25  c0-13.809-11.193-25-25-25H614.368v-68.922h87.636c13.807,0,25-11.193,25-25s-11.193-25-25-25h-87.636v-68.924h87.636  c13.807,0,25-11.193,25-25s-11.193-25-25-25h-87.636V995.53h200.275c13.807,0,25-11.192,25-25s-11.193-25-25-25H614.368v-88.431  c0-33.385,27.161-60.545,60.547-60.545h650.172c33.385,0,60.545,27.161,60.545,60.545v814.141  C1385.632,1755.729,1316.896,1824.465,1232.407,1824.465z"/>
</svg>